# xmcd CD database file
#
# Track frame offsets:
#	150
#	13662
#	27907
#	41837
#	62302
#	77447
#	93447
#	108062
#	125850
#	136697
#	149245
#	161237
#
# Disc length: 2439 seconds
#
# Revision: 5
# Processed by: cddbd v1.5.2PL0 Copyright (c) Steve Scherf et al.
# Submitted via: CDex 1.70beta2
#
DISCID=9e09850c
DTITLE=The Dubliners - Fithteen Years On  [CD 1)
DYEAR=1993
DGENRE=Irish Folk
TTITLE0=The Wild Rover
TTITLE1=Ploughboy Lads
TTITLE2=The Three Sea Captains
TTITLE3=Bunclody
TTITLE4=Seven Drunken Nights
TTITLE5=The Belfast Hornpipe (Tim Maloney)
TTITLE6=Black Velvet Band
TTITLE7=Carrickfergus
TTITLE8=Last Night's Fun-The Congress Reel
TTITLE9=The Bank Of The Sweet Primrose
TTITLE10=Weila Weila Weila
TTITLE11=Four Green Fields
EXTD=YEAR: 1993
EXTT0=
EXTT1=
EXTT2=
EXTT3=
EXTT4=
EXTT5=
EXTT6=
EXTT7=
EXTT8=
EXTT9=
EXTT10=
EXTT11=
PLAYORDER=
